<?xml version="1.0" encoding="UTF-8" standalone="no"?>

<svg
   width="40"
   height="40"
   viewBox="0 0 10.583333 10.583333"
   version="1.1"
   xmlns:xlink="http://www.w3.org/1999/xlink"
   xmlns="http://www.w3.org/2000/svg">
  <defs>
    <linearGradient id="linearGradient14">
      <stop
        style="stop-color:#9810fa;stop-opacity:1;"
        offset="0"
        id="stop14" />
      <stop
        style="stop-color:#e60076;stop-opacity:1;"
        offset="1"
        id="stop15" />
    </linearGradient>
    <linearGradient
      xlink:href="#linearGradient14"
      id="linearGradient15"
      x1="0.52916664"
      y1="5.5562479"
      x2="9.5249995"
      y2="5.5562479"
      gradientUnits="userSpaceOnUse" />
  </defs>
  <g>
    <path
      style="color:#000000;fill:url(#linearGradient15);stroke-linecap:round;-inkscape-stroke:none"
      d="m 1.0583333,2.1166666 5.168e-4,3.1744831 c 0,0 -0.52968346,5.167e-4 -0.52968346,0.5296833 v 3.1749999 c 0,0 0,0.5291666 0.52916666,0.5291666 h 4.2333331 c 0.5291666,0 0.52865,-0.5286497 0.52865,-0.5286497 l 3.1755165,-5.169e-4 c 0,0 0.5291666,0 0.5291666,-0.5291667 V 3.7041665 c 0,-0.5291667 -0.5291666,-0.5291667 -0.5291666,-0.5291667 l -1.0583332,0.00103 -1e-7,-1.0593668 c 0,-0.5291667 -0.5291667,-0.5291667 -0.5291667,-0.5291667 l -5.8296441,5.168e-4 c 0,0 -0.5203555,-5.168e-4 -0.5203555,0.5286499 z m 0.5296834,5.168e-4 h 5.8203164 v 1.05885 l -4.7624999,-0.00103 c -0.5291666,0 -0.5291666,0.5291667 -0.5291666,0.5291667 l 5.168e-4,1.5869832 H 1.5880167 Z M 2.64635,3.7052001 H 8.9963498 V 4.2322997 H 2.64635 Z m 0,1.0562662 H 8.9963498 V 8.4666664 H 5.8203164 L 5.820833,5.820833 c 0,-0.5291666 -0.5291666,-0.5291666 -0.5291666,-0.5291666 L 2.64635,5.2911497 Z M 1.0588501,5.8203164 H 5.2911497 V 8.9963498 H 1.0588501 Z m 1.0578165,1.3234332 c -0.2922507,0 -0.2645834,-0.027667 -0.2645834,0.2645833 0,0.2922507 -0.027667,0.2645834 0.2645834,0.2645834 0.2922506,0 0.2645833,0.027667 0.2645833,-0.2645834 0,-0.2922507 0.027667,-0.2645833 -0.2645833,-0.2645833 z m 2.1166665,0 c -0.2922507,0 -0.2645833,-0.027667 -0.2645833,0.2645833 0,0.2922507 -0.027667,0.2645834 0.2645833,0.2645834 0.2922506,0 0.2645833,0.027667 0.2645833,-0.2645834 0,-0.2922507 0.027667,-0.2645833 -0.2645833,-0.2645833 z"
    />
  </g>
</svg>
